<svg width="80" height="80" viewBox="0 0 80 80" fill="none" xmlns="http://www.w3.org/2000/svg">
<g clip-path="url(#clip0_1_428)">
<path d="M40 2C60.9868 2 78 19.0132 78 40C78 60.9868 60.9868 78 40 78C19.0132 78 2 60.9868 2 40C2 19.0132 19.0132 2 40 2Z" fill="white" stroke="#B0B0B0" stroke-width="4"/>
<path d="M40 80.0006C40 80.0006 40 62.1722 40 50.7486" stroke="#42BD2E" stroke-width="3"/>
<path d="M46.0835 49.4247L42.0489 50.7486H39.8424H37.6359L34.3578 49.4247L30.7013 47.2813L27.3601 43.8771L25.8471 40.2206L25.1537 35.6186L24.5233 28.3688V23.4515V18.5973L29.5666 20.3625L33.9165 22.8211L35.2404 20.3625L36.6273 18.5973L40.3467 16.3278L43.814 18.5973L45.5792 20.3625L47.2183 22.8211L51.1269 20.3625L55.5398 18.5973V23.4515V28.3688L54.9724 35.6186L54.1529 40.2206L52.3877 43.8771L49.5508 47.2813L46.0835 49.4247Z" fill="url(#paint0_linear_1_428)"/>
<path d="M47.2183 22.8211L51.1269 20.3625L55.5398 18.5973V23.4515V28.3688L54.9724 35.6186L54.1529 40.2206L52.3877 43.8771L49.5508 47.2813L46.0835 49.4247L42.0489 50.7486H39.8424M47.2183 22.8211L44.5075 24.6493L40.3467 27.8014M47.2183 22.8211L45.5792 20.3625L43.814 18.5973L40.3467 16.3278M39.8424 50.7486C36.1103 37.4342 38.6236 29.9028 40.3467 27.8014M39.8424 50.7486H37.6359L34.3578 49.4247L30.7013 47.2813L27.3601 43.8771L25.8471 40.2206L25.1537 35.6186L24.5233 28.3688V23.4515V18.5973L29.5666 20.3625L33.9165 22.8211M40.3467 27.8014L36.6273 24.6493L33.9165 22.8211M40.3467 27.8014V16.3278M40.3467 16.3278L36.6273 18.5973L35.2404 20.3625L33.9165 22.8211" stroke="#E9513D" stroke-width="3" stroke-linejoin="round"/>
<path d="M58.4997 55.3009C50.2471 64.4785 43.3817 66.5954 40.9806 66.5065C40.5538 64.5144 42.285 62.1783 43.2039 61.2594C51.7411 55.4491 66.7524 46.1229 58.4997 55.3009Z" fill="#3BBE60" stroke="#42BD2E" stroke-linejoin="round"/>
</g>
<defs>
<linearGradient id="paint0_linear_1_428" x1="26.3515" y1="21.119" x2="46.777" y2="32.5926" gradientUnits="userSpaceOnUse">
<stop stop-color="#FF9684"/>
<stop offset="1" stop-color="#E9513D"/>
</linearGradient>
<clipPath id="clip0_1_428">
<rect width="80" height="80" fill="white"/>
</clipPath>
</defs>
</svg>
